<svg xmlns="http://www.w3.org/2000/svg" version="1.1" xmlns:xlink="http://www.w3.org/1999/xlink" xmlns:svgjs="http://svgjs.dev/svgjs" width="1000" height="249" viewBox="0 0 1000 249"><g transform="matrix(1,0,0,1,-0.6060435991822146,-0.5892150016531019)"><svg viewBox="0 0 396 99" data-background-color="#ffffff" preserveAspectRatio="xMidYMid meet" height="249" width="1000" xmlns="http://www.w3.org/2000/svg" xmlns:xlink="http://www.w3.org/1999/xlink"><g id="tight-bounds" transform="matrix(1,0,0,1,0.23999326527615494,0.23426794227398773)"><svg viewBox="0 0 395.52 98.5314658522495" height="98.5314658522495" width="395.52"><g><svg viewBox="0 0 395.52 98.5314658522495" height="98.5314658522495" width="395.52"><g><svg viewBox="0 0 395.52 98.5314658522495" height="98.5314658522495" width="395.52"><g><svg viewBox="0 0 613.7894126893034 152.90647895648357" height="98.5314658522495" width="395.52"><g transform="matrix(1,0,0,1,218.2694126893034,2.4391662787140547)"><svg viewBox="0 0 395.52 148.02814639905546" height="148.02814639905546" width="395.52"><g id="textblocktransform"><svg viewBox="0 0 395.52 148.02814639905546" height="148.02814639905546" width="395.52" id="textblock"><g><svg viewBox="0 0 395.52 148.02814639905546" height="148.02814639905546" width="395.52"><g transform="matrix(1,0,0,1,0,0)"><svg width="395.52" viewBox="2 -35.400001525878906 127.03999328613281 47.55000305175781" height="148.02814639905546" data-palette-color="#ff9a9a"><path d="M14 12.15L3 12.15 3-15.1 2-20.6 3.55-23.65 13-23.65 13-21.5 13.5-21.25Q13.5-21.25 14.15-22 14.8-22.75 16.13-23.48 17.45-24.2 19.55-24.2L19.55-24.2Q24-24.2 26.53-21.35 29.05-18.5 29.05-12.35L29.05-12.35Q29.05-7.75 27.78-4.93 26.5-2.1 24.35-0.85 22.2 0.4 19.55 0.4L19.55 0.4Q16.45 0.4 15.23-0.18 14-0.75 14-0.75L14-0.75 14 12.15ZM15.3-8.05L15.3-8.05Q16.5-8.05 17.28-8.95 18.05-9.85 18.05-11.9L18.05-11.9Q18.05-13.65 17.23-14.58 16.4-15.5 14.5-15.5L14.5-15.5 14-15 14-8.7Q14-8.7 14.33-8.38 14.65-8.05 15.3-8.05ZM44.8 0.5L44.8 0.5Q40.95 0.5 37.82-0.63 34.7-1.75 32.87-4.42 31.05-7.1 31.05-11.8L31.05-11.8Q31.05-15.1 32.17-17.45 33.3-19.8 35.2-21.28 37.1-22.75 39.45-23.43 41.8-24.1 44.3-24.1L44.3-24.1Q47.45-24.1 49.57-23.7 51.7-23.3 53-22.8 54.3-22.3 55-21.9L55-21.9 57.5-13.95 56.5-10.85 42-10.85Q42.2-9.45 43.45-8.47 44.7-7.5 47.8-7.5L47.8-7.5Q50.75-7.5 52.7-8.15 54.65-8.8 55.5-9.15L55.5-9.15 55.5-1.45Q54.5-0.9 52.75-0.45 51 0 48.92 0.25 46.85 0.5 44.8 0.5ZM41.85-14.1L41.85-14.1 46.95-15.05 46.5-16.65Q45.8-17.05 44.8-17.05L44.8-17.05Q43.15-17.05 42.47-16.15 41.8-15.25 41.85-14.1ZM71.35 0.5L71.35 0.5Q66.95 0.5 64.9-1.3 62.85-3.1 62.85-6.55L62.85-6.55 62.85-15.95 58.7-15.95 58.7-22.2 62.35-24.65 65.9-30.85 73.8-30.85 73.8-23.6 81.3-23.6 81.3-15.6 73.8-15.6 73.8-7.9 81.3-7.95 81.3-1Q81.3-1 80.4-0.78 79.5-0.55 78.02-0.25 76.55 0.05 74.8 0.28 73.05 0.5 71.35 0.5ZM96.54 0L85.54 0 85.54-27.4 84.49-32.4 85.54-35.4 96.54-35.4 96.54 0ZM106.59 12.15L106.59 12.15 97.54 9.15 99.54 0.7 109.54 2.7Q111.29 2.7 112.07 1.95 112.84 1.2 113.14-0.05L113.14-0.05 106.99-0.05 100.49-17.15 99.54-23.65 111.04-23.65 113.79-8.15 114.79-8.15 117.54-23.65 129.04-23.65Q129.04-23.65 128.67-22.08 128.29-20.5 127.64-17.9 126.99-15.3 126.14-12.18 125.29-9.05 124.39-5.88 123.49-2.7 122.59-0.05L122.59-0.05Q120.54 6.15 116.54 9.15 112.54 12.15 106.59 12.15Z" opacity="1" transform="matrix(1,0,0,1,0,0)" fill="#ff9a9a" class="undefined-text-0" data-fill-palette-color="primary" id="text-0"></path></svg></g></svg></g></svg></g></svg></g><g><svg viewBox="0 0 183.32352 152.90647895648357" height="152.90647895648357" width="183.32352"><g><svg xmlns="http://www.w3.org/2000/svg" xmlns:xlink="http://www.w3.org/1999/xlink" version="1.1" x="0" y="0" viewBox="4.562997341156006 13.694775581359863 93.37500762939453 77.8822250366211" enable-background="new 0 0 100 100" xml:space="preserve" height="152.90647895648357" width="183.32352" class="icon-icon-0" data-fill-palette-color="accent" id="icon-0"><path fill-rule="evenodd" clip-rule="evenodd" d="M95.934 26.48l-3.713 8.296c-1.01 1.928-2.794 3.025-5.35 3.293h-1.395c-1.708-0.105-3.567-0.14-5.577-0.105-2.429 0.395-4.59 0.912-6.483 1.551-1.511 0.5-3.027 0.576-4.55 0.227-0.615-0.174-1.487-0.512-2.614-1.011-0.418-0.209-1.487-0.931-3.207-2.162-1.789-1.29-3.485-2.329-5.089-3.119-1.405-0.768-4.101-2.046-8.087-3.835-2.277-1.104-3.753-2.097-4.426-2.979-0.663-0.895-0.75-1.976-0.262-3.242 0.267-0.72 0.808-1.255 1.621-1.604 1.138-0.581 2.498-0.535 4.079 0.14 1.904 0.86 3.224 1.453 3.956 1.778 1.29 0.581 3.317 1.325 6.082 2.23 0.942 0.291 1.883 0.489 2.823 0.593h1.203l-1.08-0.488c-6.356-2.916-10.533-4.799-12.531-5.647-1.952-0.813-3.643-0.941-5.072-0.382-1.383 0.581-2.335 1.417-2.858 2.509-0.279 0.616-0.471 1.447-0.575 2.492-0.744-0.046-2.26-0.111-4.549-0.192-4.799 2.313-7.401 3.544-7.808 3.695-0.941 0.314-1.906 0.488-2.893 0.523-1.081-0.024-1.876-0.216-2.388-0.576-0.604-0.255-1.034-0.895-1.29-1.917-0.175-1.047 0.737-2.179 2.736-3.399l10.596-6.867c5.101-0.603 10.08-1.423 14.937-2.457 1.068-0.244 2.103-0.145 3.102 0.296 3.115 1.604 6.659 3.23 10.632 4.88 1.977 0.813 3.887 1.575 5.734 2.284 3.277 1.057 6.024 1.667 8.244 1.83h0.018c2.439 0.023 7.784-0.941 16.034-2.894C98.606 19.631 98.606 21.717 95.934 26.48z" fill="#265cb5" data-fill-palette-color="accent"></path><path fill-rule="evenodd" clip-rule="evenodd" d="M25.73 31.831c3.405 5.019 6.298 10.091 8.68 15.215 3.764 8.168 5.49 15.047 5.176 20.636-0.058 0.302-0.209 0.604-0.453 0.906-0.348 0.384-0.604 0.61-0.767 0.68-4.276 1.371-8.511 1.731-12.706 1.081-6.309-1.139-11.741-4.619-16.295-10.439 0.825-7.576 2.347-13.485 4.566-17.726l2.962-4.113C19.567 35.154 22.512 33.075 25.73 31.831z" fill="#265cb5" data-fill-palette-color="accent"></path><path fill-rule="evenodd" clip-rule="evenodd" d="M79.011 48.388c-0.709-0.917-1.587-1.476-2.632-1.672-9.572 0.235-14.992-1.101-16.261-4.009-2.406-5.798-6.397-9.499-11.974-11.102-5.577-1.592-11.648-0.93-18.213 1.986 2.893 4.613 5.287 9.132 7.18 13.56 3.509 7.878 5.072 14.617 4.688 20.218 0 1.022-0.389 1.992-1.167 2.91-0.686 0.93-1.511 1.546-2.475 1.849-3.01 1.01-7.129 1.301-12.357 0.871-5.24-0.442-10.904-3.167-16.993-8.175-1.385 6.83-2.799 11.271-4.244 13.324 14.306 8.29 28.217 12.767 41.733 13.429 2.091-7.355 3.184-11.137 3.277-11.346 0.523-1.36 0.837-2.133 0.941-2.318 0.244-0.406 0.546-0.784 0.906-1.133 0.789-0.778 1.69-1.243 2.702-1.395 5.959-0.813 11.095-2.66 15.406-5.542 6.519-4.321 9.997-10.521 10.439-18.597C80.063 50.224 79.742 49.271 79.011 48.388zM53.181 50.445c-0.686 0.674-1.51 1.01-2.475 1.01-0.988 0-1.818-0.336-2.493-1.01-0.685-0.674-1.028-1.505-1.028-2.492 0-0.977 0.343-1.802 1.028-2.475 0.674-0.674 1.504-1.012 2.493-1.012 0.965 0 1.789 0.337 2.475 1.012 0.675 0.673 1.012 1.498 1.012 2.475C54.192 48.939 53.855 49.771 53.181 50.445z" fill="#265cb5" data-fill-palette-color="accent"></path></svg></g></svg></g></svg></g></svg></g></svg></g><defs></defs></svg><rect width="395.52" height="98.5314658522495" fill="none" stroke="none" visibility="hidden"></rect></g></svg></g></svg>